<svg width="2029.9999999999998" height="273" xmlns="http://www.w3.org/2000/svg" xml:space="preserve" version="1.1">

 <g>
  <title>Layer 1</title>
  <rect fill="#334258" height="125.8" width="120.4" class="st0" y="3.5" x="144.8" id="XMLID_25_"/>
  <rect fill="#8C8CF9" height="128.3" width="120.4" class="st1" y="141.2" x="144.8" id="XMLID_24_"/>
  <rect fill="#334258" height="125.8" width="120.4" class="st0" y="3.5" x="14.5" id="XMLID_23_"/>
  <rect fill="#334258" height="128.3" width="120.4" class="st0" y="141.2" x="14.5" id="XMLID_22_"/>
  <g id="svg_1">
   <path fill="#334258" d="m319.42284,269.35594l-21.4229,0l0,-263.87167l56.21158,0a202.22444,248.98768 0 0 1 19.40718,1.08403q13.33103,1.58682 24.18294,5.49146a63.06969,77.6542 0 0 1 17.85773,10.15563a55.36302,68.16539 0 0 1 11.55858,12.91206a50.65386,62.36727 0 0 1 8.93755,20.17219q3.00042,10.96152 3.75343,24.70799q0.28382,2.52464 0.28382,7.13889a57.29764,70.5474 0 0 1 -4.26315,27.35744a54.71717,67.3702 0 0 1 -5.17833,11.81733a60.54714,74.54832 0 0 1 -20.7481,23.2959a74.65144,91.91416 0 0 1 -5.58959,3.51953a84.60555,104.1701 0 0 1 -25.06338,8.59377a107.10582,131.87343 0 0 1 -13.25863,0.98062l-46.66874,0l0,106.64482l0.00001,0.00001zm37.40681,-240.36538l-37.40681,0l0,110.21427l44.33442,0a97.45872,119.99548 0 0 0 15.09189,-1.33721q7.70958,-1.49054 13.85523,-4.64634a39.12135,48.16793 0 0 0 12.55776,-10.03439a43.28312,53.2921 0 0 0 12.17547,-28.7838a62.42964,76.86614 0 0 0 1.04842,-14.39546q-1.2019,-28.12054 -17.43199,-39.57059a61.8562,76.1601 0 0 0 -14.96157,-7.35641q-7.04926,-2.29999 -15.42785,-3.30557a142.75177,175.7623 0 0 0 -13.83497,-0.78449l0,-0.00001z" class="st0" id="svg_2"/>
   <path fill="#334258" d="m1499.90671,269.35594l92.13267,-263.87167l23.75721,0l92.06027,263.87167l-23.19245,0l-31.5363,-88.45169l-99.06029,0l-30.96865,88.45169l-23.19245,0l-0.00001,0zm145.3728,-112.65333l-41.36297,-120.57315l-41.7163,120.57315l83.07927,0z" class="st0" id="svg_3"/>
   <path fill="#334258" d="m698.81991,37.6093l0,231.74664l-21.4229,0l0,-263.87167l28.99057,0l119.91844,218.6028l0,-218.6028l21.4229,0l0,263.87167l-21.4229,0l-127.48611,-231.74664z" class="st0" id="svg_4"/>
   <path fill="#8C8CF9" d="m1905.36634,269.35594l-69.50497,0l0,-263.87167l58.26206,0a181.48502,223.4524 0 0 1 26.69971,2.30713a133.36531,164.20528 0 0 1 26.54331,8.1837a118.32555,145.68766 0 0 1 23.4589,14.25996a97.6962,120.28788 0 0 1 15.18168,14.86259q15.52052,18.62817 23.19245,42.87616q7.67193,24.24443 7.67193,51.92993a109.63128,134.98288 0 0 1 -3.78529,34.74238a95.90058,118.07704 0 0 1 -5.65331,18.88491q-9.22717,24.20164 -25.17343,41.26438q-15.94336,17.06274 -35.84868,25.81342a121.18696,149.21075 0 0 1 -41.0444,8.74711l0.00003,0zm-11.24289,-240.36538l-36.83917,0l0,216.07816l33.02203,0q44.61536,0 73.46402,-25.81342a73.59435,90.61262 0 0 0 27.70468,-50.00792a112.98792,139.11574 0 0 0 3.97353,-29.34364q0,-22.02645 -6.15144,-42.00608a81.52982,100.38313 0 0 0 -18.70341,-35.51975a81.19098,99.96592 0 0 0 -19.36663,-17.5477a103.16994,127.0274 0 0 0 -12.45059,-6.91424q-19.26816,-8.9254 -44.65301,-8.9254l0.00001,-0.00001z" class="st1" id="svg_5"/>
   <path fill="#334258" d="m1085.7557,139.20839q0.35334,-24.63668 8.48575,-48.44607a115.17453,141.80798 0 0 1 23.19245,-43.22562q15.06003,-19.41266 35.66912,-30.73077a107.54893,132.41901 0 0 1 40.97778,-11.24679a124.39879,153.16531 0 0 1 3.74474,-0.07132q30.97155,0 57.23683,18.37142a111.07356,136.75869 0 0 1 41.57729,50.40374a111.01564,136.68737 0 0 1 15.30911,70.60446a104.25021,128.35747 0 0 1 -6.945,44.68763a98.78805,121.63222 0 0 1 -3.37983,9.46385a109.11287,134.34459 0 0 1 -26.58676,42.65508a121.92259,150.11648 0 0 1 -37.22725,27.3824a117.33217,144.46456 0 0 1 -41.68155,9.5316a113.97841,140.33527 0 0 1 -40.16106,-10.79392a117.6102,144.80688 0 0 1 -35.67202,-28.33806a109.1534,134.39451 0 0 1 -25.24293,-43.92096a107.7256,132.63653 0 0 1 -8.96941,-44.9836a128.07693,157.69398 0 0 1 -0.32727,-11.34307zm21.4229,-1.47984a123.77612,152.39865 0 0 0 2.09682,25.65295a89.55219,110.26062 0 0 0 6.91893,26.58365a91.1277,112.20046 0 0 0 11.19656,22.25823a76.40651,94.07509 0 0 0 10.93591,13.69655a92.7148,114.15457 0 0 0 22.49737,17.08414a85.37303,105.11506 0 0 0 6.73937,3.15581a102.64863,126.38554 0 0 0 18.91194,5.45936a86.35193,106.32032 0 0 0 11.35005,0.93783a102.44879,126.13949 0 0 0 24.96202,-4.36107a118.53986,145.95153 0 0 0 5.86762,-2.12527a94.73632,116.64355 0 0 0 29.37865,-19.36987q13.68147,-13.14384 22.4858,-33.82239a85.02549,104.68715 0 0 0 7.77329,-27.14349a113.94077,140.28891 0 0 0 2.23005,-21.56289a93.95146,115.6772 0 0 0 -5.10883,-38.55788a85.87985,105.73909 0 0 0 -7.97023,-20.55374q-13.08196,-26.12008 -34.4006,-40.35152q-21.31864,-14.235 -44.58061,-14.235a84.83434,104.4518 0 0 0 -35.14201,9.18571a97.55718,120.11672 0 0 0 -29.37865,24.93978a95.90347,118.0806 0 0 0 -18.63389,31.97526a91.17694,112.26108 0 0 0 -1.1295,2.98108a80.27289,98.83554 0 0 0 -5.93134,23.31373a69.27617,85.29589 0 0 0 -1.06868,14.85903l-0.00003,0.00001z" class="st0" id="svg_6"/>
   <path fill="#334258" d="m1362.04076,269.35594l-21.4229,0l0,-263.87167l57.62491,0a188.30838,231.85362 0 0 1 18.00254,0.99488q14.96446,1.77581 26.08572,6.71099a89.89393,110.6814 0 0 1 11.63099,6.26169q5.91106,3.86185 10.41459,8.48323a45.64639,56.20186 0 0 1 4.39637,5.14913a64.74078,79.71172 0 0 1 7.70089,12.49128a50.57855,62.27456 0 0 1 4.92058,13.10105a100.43017,123.65408 0 0 1 3.91272,21.23839a116.29823,143.19154 0 0 1 0.68349,7.5775a71.10944,87.55309 0 0 1 -8.16718,41.39632a63.81111,78.56707 0 0 1 -22.6248,30.38488q-14.46053,11.27175 -32.63105,11.27175l60.59637,98.81058l-26.94009,0l-73.04118,-119.78866l17.95909,0a111.56881,137.36846 0 0 0 15.88833,-1.32651q8.70876,-1.54403 16.14031,-4.88526a68.22486,84.00147 0 0 0 1.52338,-0.70961a54.20455,66.73904 0 0 0 12.24786,-8.15874a43.47717,53.53101 0 0 0 9.84694,-12.21314a41.90165,51.59117 0 0 0 7.48079,-24.88985a53.55581,65.94028 0 0 0 0.29831,-7.01765a48.13999,59.27208 0 0 0 -1.97519,-17.28739a40.43909,49.7904 0 0 0 -6.43816,-15.62213a51.74861,63.71517 0 0 0 -20.85815,-20.09018a61.37255,75.5646 0 0 0 -1.27431,-0.67039q-13.71622,-7.01052 -28.77915,-7.01052l-43.20203,0l0,239.67003z" class="st0" id="svg_7"/>
   <path fill="#334258" d="m451.49647,269.35594l92.13267,-263.87167l23.75721,0l92.06027,263.87167l-23.19245,0l-31.5363,-88.45169l-99.06029,0l-30.96865,88.45169l-23.19245,0l-0.00001,0zm145.3728,-112.65333l-41.36297,-120.57315l-41.7163,120.57315l83.07927,0z" class="st0" id="svg_8"/>
   <path fill="#8C8CF9" d="m1779.08793,5.48427l0,263.87167l-21.4229,0l0,-263.87167l21.4229,0z" class="st1" id="svg_9"/>
   <path fill="#334258" d="m952.52941,269.35594l-69.50497,0l0,-263.87167l58.26206,0a181.48502,223.4524 0 0 1 26.69971,2.30713a133.36531,164.20528 0 0 1 26.54331,8.1837a118.32555,145.68766 0 0 1 23.4589,14.25996a97.6962,120.28788 0 0 1 15.18168,14.86259q15.52052,18.62817 23.19245,42.87616q7.67193,24.24443 7.67193,51.92993a109.63128,134.98288 0 0 1 -3.78529,34.74238a95.90058,118.07704 0 0 1 -5.65331,18.88491q-9.22717,24.20164 -25.17343,41.26438q-15.94336,17.06274 -35.84868,25.81342a121.18696,149.21075 0 0 1 -41.0444,8.74711l0.00003,0zm-11.24289,-240.36538l-36.83917,0l0,216.07816l33.02203,0q44.61536,0 73.46402,-25.81342a73.59435,90.61262 0 0 0 27.70468,-50.00792a112.98792,139.11574 0 0 0 3.97353,-29.34364q0,-22.02645 -6.15144,-42.00608a81.52982,100.38313 0 0 0 -18.70341,-35.51975a81.19098,99.96592 0 0 0 -19.36663,-17.5477a103.16994,127.0274 0 0 0 -12.45059,-6.91424q-19.26816,-8.9254 -44.65301,-8.9254l0.00001,-0.00001z" class="st0" id="svg_10"/>
  </g>
 </g>
</svg>