<svg width="2300" height="283" xmlns="http://www.w3.org/2000/svg" xml:space="preserve" version="1.1">

 <g>
  <title>Layer 1</title>
  <rect fill="#334258" height="125.8" width="120.4" class="st0" y="3.5" x="144.8" id="XMLID_25_"/>
  <rect fill="#8C8CF9" height="128.3" width="120.4" class="st1" y="141.2" x="144.8" id="XMLID_24_"/>
  <rect fill="#334258" height="125.8" width="120.4" class="st0" y="3.5" x="14.5" id="XMLID_23_"/>
  <rect fill="#334258" height="128.3" width="120.4" class="st0" y="141.2" x="14.5" id="XMLID_22_"/>
  <g id="svg_1">
   <path fill="#334258" d="m406.47931,269.35594l-23.47935,0l0,-263.87167l61.60751,0a221.6366,248.98768 0 0 1 21.27014,1.08403q14.61072,1.58682 26.50434,5.49146a69.12395,77.6542 0 0 1 19.57195,10.15563a60.67749,68.16539 0 0 1 12.66812,12.91206a55.51628,62.36727 0 0 1 9.79549,20.17219q3.28844,10.96152 4.11373,24.70799q0.31106,2.52464 0.31106,7.13889a62.79782,70.5474 0 0 1 -4.67238,27.35744a59.96965,67.3702 0 0 1 -5.67542,11.81733a66.35925,74.54832 0 0 1 -22.73978,23.2959a81.81747,91.91416 0 0 1 -6.12616,3.51953a92.7271,104.1701 0 0 1 -27.46929,8.59377a117.38725,131.87343 0 0 1 -14.53136,0.98062l-51.14862,0l0,106.64482l0.00001,0.00001zm40.99761,-240.36538l-40.99761,0l0,110.21427l48.59023,0a106.81409,119.99548 0 0 0 16.54061,-1.33721q8.44965,-1.49054 15.18524,-4.64634a42.87673,48.16793 0 0 0 13.76322,-10.03439a47.43801,53.2921 0 0 0 13.34423,-28.7838a68.42246,76.86614 0 0 0 1.14906,-14.39546q-1.31728,-28.12054 -19.10534,-39.57059a67.79397,76.1601 0 0 0 -16.39778,-7.35641q-7.72594,-2.29999 -16.90882,-3.30557a156.45496,175.7623 0 0 0 -15.16303,-0.78449l0,-0.00001z" class="st0" id="svg_2"/>
   <path fill="#334258" d="m1700.28155,269.35594l100.97678,-263.87167l26.03774,0l100.89742,263.87167l-25.41877,0l-34.56357,-88.45169l-108.5694,0l-33.94143,88.45169l-25.41877,0l-0.00001,0zm159.3276,-112.65333l-45.33354,-120.57315l-45.72077,120.57315l91.05431,0z" class="st0" id="svg_3"/>
   <path fill="#334258" d="m822.2959,37.6093l0,231.74664l-23.47935,0l0,-263.87167l31.77347,0l131.42979,218.6028l0,-218.6028l23.47935,0l0,263.87167l-23.47935,0l-139.72391,-231.74664z" class="st0" id="svg_4"/>
   <path fill="#8C8CF9" d="m2144.66253,269.35594l-76.17697,0l0,-263.87167l63.85482,0a198.90634,223.4524 0 0 1 29.2627,2.30713a146.16747,164.20528 0 0 1 29.09128,8.1837a129.68399,145.68766 0 0 1 25.7108,14.25996a107.07436,120.28788 0 0 1 16.63901,14.86259q17.01038,18.62817 25.41877,42.87616q8.40839,24.24443 8.40839,51.92993a120.15513,134.98288 0 0 1 -4.14865,34.74238a105.10638,118.07704 0 0 1 -6.19599,18.88491q-10.11291,24.20164 -27.58991,41.26438q-17.47381,17.06274 -39.28991,25.81342a132.82008,149.21075 0 0 1 -44.98438,8.74711l0.00003,0zm-12.32213,-240.36538l-40.37548,0l0,216.07816l36.19192,0q48.89812,0 80.51606,-25.81342a80.6589,90.61262 0 0 0 30.36414,-50.00792a123.83399,139.11574 0 0 0 4.35496,-29.34364q0,-22.02645 -6.74194,-42.00608a89.35613,100.38313 0 0 0 -20.49881,-35.51975a88.98476,99.96592 0 0 0 -21.2257,-17.5477a113.07355,127.0274 0 0 0 -13.64577,-6.91424q-21.11777,-8.9254 -48.9394,-8.9254l0.00001,-0.00001z" class="st1" id="svg_5"/>
   <path fill="#334258" d="m1246.37488,139.20839q0.38725,-24.63668 9.30033,-48.44607a126.23049,141.80798 0 0 1 25.41877,-43.22562q16.50569,-19.41266 39.09311,-30.73077a117.87289,132.41901 0 0 1 44.91137,-11.24679a136.34023,153.16531 0 0 1 4.10421,-0.07132q33.94461,0 62.73117,18.37142a121.73587,136.75869 0 0 1 45.56842,50.40374a121.67238,136.68737 0 0 1 16.77868,70.60446a114.25752,128.35747 0 0 1 -7.61167,44.68763a108.27102,121.63222 0 0 1 -3.70427,9.46385a119.58696,134.34459 0 0 1 -29.1389,42.65508a133.62632,150.11648 0 0 1 -40.80082,27.3824a128.59526,144.46456 0 0 1 -45.68269,9.5316a124.91956,140.33527 0 0 1 -44.01625,-10.79392a128.89997,144.80688 0 0 1 -39.09629,-28.33806a119.63138,134.39451 0 0 1 -27.66608,-43.92096a118.06652,132.63653 0 0 1 -9.83041,-44.9836a140.37144,157.69398 0 0 1 -0.35868,-11.34307zm23.47935,-1.47984a135.65778,152.39865 0 0 0 2.2981,25.65295a98.14859,110.26062 0 0 0 7.5831,26.58365a99.87534,112.20046 0 0 0 12.27135,22.25823a83.74102,94.07509 0 0 0 11.98568,13.69655a101.61479,114.15457 0 0 0 24.65697,17.08414a93.56826,105.11506 0 0 0 7.3863,3.15581a112.50219,126.38554 0 0 0 20.72735,5.45936a94.64113,106.32032 0 0 0 12.43958,0.93783a112.28317,126.13949 0 0 0 27.3582,-4.36107a129.91888,145.95153 0 0 0 6.43088,-2.12527a103.83036,116.64355 0 0 0 32.1988,-19.36987q14.99479,-13.14384 24.64428,-33.82239a93.18735,104.68715 0 0 0 8.51948,-27.14349a124.8783,140.28891 0 0 0 2.44412,-21.56289a102.97016,115.6772 0 0 0 -5.59924,-38.55788a94.12373,105.73909 0 0 0 -8.73532,-20.55374q-14.33774,-26.12008 -37.70282,-40.35152q-23.36508,-14.235 -48.86004,-14.235a92.97786,104.4518 0 0 0 -38.51541,9.18571a106.922,120.11672 0 0 0 -32.1988,24.93978a105.10954,118.0806 0 0 0 -20.42262,31.97526a99.9293,112.26108 0 0 0 -1.23792,2.98108a87.97854,98.83554 0 0 0 -6.50071,23.31373a75.92621,85.29589 0 0 0 -1.17127,14.85903l-0.00003,0.00001z" class="st0" id="svg_6"/>
   <path fill="#334258" d="m1549.18142,269.35594l-23.47935,0l0,-263.87167l63.15651,0a206.38469,231.85362 0 0 1 19.73066,0.99488q16.40095,1.77581 28.58978,6.71099a98.52314,110.6814 0 0 1 12.74748,6.26169q6.47848,3.86185 11.41432,8.48323a50.02813,56.20186 0 0 1 4.81839,5.14913a70.95546,79.71172 0 0 1 8.44012,12.49128a55.43375,62.27456 0 0 1 5.39293,13.10105a110.07078,123.65408 0 0 1 4.28831,21.23839a127.46207,143.19154 0 0 1 0.7491,7.5775a77.93546,87.55309 0 0 1 -8.95117,41.39632a69.93654,78.56707 0 0 1 -24.79663,30.38488q-15.84864,11.27175 -35.76341,11.27175l66.41321,98.81058l-29.52616,0l-80.05263,-119.78866l19.68304,0a122.27865,137.36846 0 0 0 17.4135,-1.32651q9.54474,-1.54403 17.68967,-4.88526a74.77398,84.00147 0 0 0 1.66961,-0.70961a59.40782,66.73904 0 0 0 13.42357,-8.15874a47.65068,53.53101 0 0 0 10.79218,-12.21314a45.92392,51.59117 0 0 0 8.19889,-24.88985a58.6968,65.94028 0 0 0 0.32695,-7.01765a52.7611,59.27208 0 0 0 -2.16479,-17.28739a44.32096,49.7904 0 0 0 -7.05618,-15.62213a56.71612,63.71517 0 0 0 -22.86039,-20.09018a67.26389,75.5646 0 0 0 -1.39663,-0.67039q-15.03289,-7.01052 -31.54175,-7.01052l-47.34913,0l0,239.67003z" class="st0" id="svg_7"/>
   <path fill="#334258" d="m551.2311,269.35594l100.97678,-263.87167l26.03774,0l100.89742,263.87167l-25.41877,0l-34.56357,-88.45169l-108.5694,0l-33.94143,88.45169l-25.41877,0l-0.00001,0zm159.3276,-112.65333l-45.33354,-120.57315l-45.72077,120.57315l91.05431,0z" class="st0" id="svg_8"/>
   <path fill="#8C8CF9" d="m2006.26226,5.48427l0,263.87167l-23.47935,0l0,-263.87167l23.47935,0z" class="st1" id="svg_9"/>
   <path fill="#334258" d="m1100.35978,269.35594l-76.17697,0l0,-263.87167l63.85482,0a198.90634,223.4524 0 0 1 29.2627,2.30713a146.16747,164.20528 0 0 1 29.09128,8.1837a129.68399,145.68766 0 0 1 25.7108,14.25996a107.07436,120.28788 0 0 1 16.63901,14.86259q17.01038,18.62817 25.41877,42.87616q8.40839,24.24443 8.40839,51.92993a120.15513,134.98288 0 0 1 -4.14865,34.74238a105.10638,118.07704 0 0 1 -6.19599,18.88491q-10.11291,24.20164 -27.58991,41.26438q-17.47381,17.06274 -39.28991,25.81342a132.82008,149.21075 0 0 1 -44.98438,8.74711l0.00003,0zm-12.32213,-240.36538l-40.37548,0l0,216.07816l36.19192,0q48.89812,0 80.51606,-25.81342a80.6589,90.61262 0 0 0 30.36414,-50.00792a123.83399,139.11574 0 0 0 4.35496,-29.34364q0,-22.02645 -6.74194,-42.00608a89.35613,100.38313 0 0 0 -20.49881,-35.51975a88.98476,99.96592 0 0 0 -21.2257,-17.5477a113.07355,127.0274 0 0 0 -13.64577,-6.91424q-21.11777,-8.9254 -48.9394,-8.9254l0.00001,-0.00001z" class="st0" id="svg_10"/>
  </g>
 </g>
</svg>